<?xml version="1.0" encoding="utf-8"?>
<!-- Generator: Adobe Illustrator 26.0.1, SVG Export Plug-In . SVG Version: 6.00 Build 0)  -->
<svg version="1.1" id="Слой_1" xmlns="http://www.w3.org/2000/svg" xmlns:xlink="http://www.w3.org/1999/xlink" x="0px" y="0px"
	 width="987px" height="697px" viewBox="0 0 987 697" style="enable-background:new 0 0 987 697;" xml:space="preserve">
<style type="text/css">
	.st0{clip-path:url(#SVGID_00000156577823833527564440000001482803226606563244_);}
	.st1{fill:#1D1D1D;}
</style>
<g>
	<defs>
		<rect id="SVGID_1_" width="987" height="697"/>
	</defs>
	<clipPath id="SVGID_00000180342911972626181110000015149826330308331929_">
		<use xlink:href="#SVGID_1_"  style="overflow:visible;"/>
	</clipPath>
	<g style="clip-path:url(#SVGID_00000180342911972626181110000015149826330308331929_);">
		<path class="st1" d="M-95.642,55.411V-55.411L0-110.823l95.642,55.411V55.411L0,110.823L-95.642,55.411z"/>
		<path class="st1" d="M0-110.3l95.208,55.15v110.3L0,110.3l-95.208-55.15v-110.3L0-110.3z M0-111.259l-96.077,55.673V55.673
			L0,111.259l96.077-55.673V-55.673L0-111.259z"/>
		<path class="st1" d="M101.723,55.411V-55.411l95.642-55.411l95.729,55.411V55.411l-95.729,55.411L101.723,55.411z"/>
		<path class="st1" d="M197.365-110.3l95.208,55.15v110.3l-95.208,55.15l-95.208-55.15v-110.3L197.365-110.3z M197.365-111.259
			l-96.076,55.586V55.673l96.076,55.673l96.077-55.673V-55.673L197.365-111.259z"/>
		<path class="st1" d="M299.175,55.411V-55.411l95.642-55.411l95.643,55.411V55.411l-95.643,55.411L299.175,55.411z"/>
		<path class="st1" d="M394.817-110.3l95.208,55.15v110.3l-95.208,55.15l-95.208-55.15v-110.3L394.817-110.3z M394.817-111.259
			l-96.076,55.586V55.673l96.076,55.673l96.077-55.673V-55.673L394.817-111.259z"/>
		<path class="st1" d="M496.54,55.411V-55.411l95.643-55.411l95.642,55.411V55.411l-95.642,55.411L496.54,55.411z"/>
		<path class="st1" d="M592.183-110.3l95.208,55.15v110.3l-95.208,55.15l-95.208-55.15v-110.3L592.183-110.3z M592.183-111.259
			l-96.077,55.586V55.673l96.077,55.673l96.076-55.673V-55.673L592.183-111.259z"/>
		<path class="st1" d="M693.906,55.411V-55.411l95.642-55.411l95.729,55.411V55.411l-95.729,55.411L693.906,55.411z"/>
		<path class="st1" d="M789.548-110.3l95.208,55.15v110.3l-95.208,55.15L694.34,55.15v-110.3L789.548-110.3z M789.548-111.259
			l-96.077,55.586V55.673l96.077,55.673l96.076-55.673V-55.673L789.548-111.259z"/>
		<path class="st1" d="M891.358,55.411V-55.411L987-110.823l95.64,55.411V55.411L987,110.823L891.358,55.411z"/>
		<path class="st1" d="M987-110.3l95.21,55.15v110.3L987,110.3l-95.208-55.15v-110.3L987-110.3z M987-111.259l-96.077,55.673V55.673
			L987,111.346l96.08-55.673V-55.673L987-111.259z"/>
		<path class="st1" d="M-95.642,403.912V293.088L0,237.677l95.642,55.411v110.824L0,459.323L-95.642,403.912z"/>
		<path class="st1" d="M0,238.2l95.208,55.15v110.3L0,458.8l-95.208-55.15v-110.3L0,238.2z M0,237.241l-96.077,55.673v111.259
			L0,459.759l96.077-55.673V292.827L0,237.241z"/>
		<path class="st1" d="M101.723,403.912V293.088l95.642-55.411l95.729,55.411v110.824l-95.729,55.411L101.723,403.912z"/>
		<path class="st1" d="M197.365,238.2l95.208,55.15v110.3l-95.208,55.15l-95.208-55.15v-110.3L197.365,238.2z M197.365,237.241
			l-96.076,55.673v111.259l96.076,55.673l96.077-55.673V292.827L197.365,237.241z"/>
		<path class="st1" d="M299.175,403.912V293.088l95.642-55.411l95.643,55.411v110.824l-95.643,55.411L299.175,403.912z"/>
		<path class="st1" d="M394.817,238.2l95.208,55.15v110.3l-95.208,55.15l-95.208-55.15v-110.3L394.817,238.2z M394.817,237.241
			l-96.076,55.673v111.259l96.076,55.673l96.077-55.673V292.827L394.817,237.241z"/>
		<path class="st1" d="M496.54,403.912V293.088l95.643-55.411l95.642,55.411v110.824l-95.642,55.411L496.54,403.912z"/>
		<path class="st1" d="M592.183,238.2l95.208,55.15v110.3l-95.208,55.15l-95.208-55.15v-110.3L592.183,238.2z M592.183,237.241
			l-96.077,55.673v111.259l96.077,55.673l96.076-55.673V292.827L592.183,237.241z"/>
		<path class="st1" d="M693.906,403.912V293.088l95.642-55.411l95.729,55.411v110.824l-95.729,55.411L693.906,403.912z"/>
		<path class="st1" d="M789.548,238.2l95.208,55.15v110.3l-95.208,55.15l-95.208-55.15v-110.3L789.548,238.2z M789.548,237.241
			l-96.077,55.673v111.259l96.077,55.673l96.076-55.673V292.827L789.548,237.241z"/>
		<path class="st1" d="M891.358,403.912V293.088L987,237.677l95.64,55.411v110.824L987,459.323L891.358,403.912z"/>
		<path class="st1" d="M987,238.2l95.21,55.15v110.3L987,458.8l-95.208-55.15v-110.3L987,238.2z M987,237.241l-96.077,55.673
			v111.259L987,459.846l96.08-55.673V292.827L987,237.241z"/>
		<path class="st1" d="M-95.642,752.411V641.589L0,586.177l95.642,55.412v110.822L0,807.823L-95.642,752.411z"/>
		<path class="st1" d="M0,586.7l95.208,55.15v110.3L0,807.3l-95.208-55.15v-110.3L0,586.7z M0,585.741l-96.077,55.673v111.259
			L0,808.259l96.077-55.673V641.327L0,585.741z"/>
		<path class="st1" d="M101.723,752.411V641.589l95.642-55.412l95.729,55.412v110.822l-95.729,55.412L101.723,752.411z"/>
		<path class="st1" d="M197.365,586.7l95.208,55.15v110.3l-95.208,55.15l-95.208-55.15v-110.3L197.365,586.7z M197.365,585.741
			l-96.076,55.673v111.259l96.076,55.673l96.077-55.673V641.327L197.365,585.741z"/>
		<path class="st1" d="M299.175,752.411V641.589l95.642-55.412l95.643,55.412v110.822l-95.643,55.412L299.175,752.411z"/>
		<path class="st1" d="M394.817,586.7l95.208,55.15v110.3l-95.208,55.15l-95.208-55.15v-110.3L394.817,586.7z M394.817,585.741
			l-96.076,55.673v111.259l96.076,55.673l96.077-55.673V641.327L394.817,585.741z"/>
		<path class="st1" d="M496.54,752.411V641.589l95.643-55.412l95.642,55.412v110.822l-95.642,55.412L496.54,752.411z"/>
		<path class="st1" d="M592.183,586.7l95.208,55.15v110.3l-95.208,55.15l-95.208-55.15v-110.3L592.183,586.7z M592.183,585.741
			l-96.077,55.673v111.259l96.077,55.673l96.076-55.673V641.327L592.183,585.741z"/>
		<path class="st1" d="M693.906,752.411V641.589l95.642-55.412l95.729,55.412v110.822l-95.729,55.412L693.906,752.411z"/>
		<path class="st1" d="M789.548,586.7l95.208,55.15v110.3l-95.208,55.15l-95.208-55.15v-110.3L789.548,586.7z M789.548,585.741
			l-96.077,55.673v111.259l96.077,55.673l96.076-55.673V641.327L789.548,585.741z"/>
		<path class="st1" d="M891.358,752.411V641.589L987,586.177l95.64,55.412v110.822L987,807.823L891.358,752.411z"/>
		<path class="st1" d="M987,586.7l95.21,55.15v110.3L987,807.3l-95.208-55.15v-110.3L987,586.7z M987,585.741l-96.077,55.673
			v111.259L987,808.346l96.08-55.673V641.327L987,585.741z"/>
		<path class="st1" d="M3.04,579.033V468.21l95.642-55.412l95.642,55.412v110.823l-95.642,55.324L3.04,579.033z"/>
		<path class="st1" d="M98.683,413.321l95.208,55.15v110.3l-95.208,55.15l-95.208-55.15v-110.3L98.683,413.321z M98.683,412.363
			L2.606,467.948v111.259l96.077,55.673l96.076-55.673V467.948L98.683,412.363z"/>
		<path class="st1" d="M200.406,579.033V468.21l95.729-55.412l95.642,55.412v110.823l-95.642,55.324L200.406,579.033z"/>
		<path class="st1" d="M296.135,413.321l95.208,55.15v110.3l-95.208,55.15l-95.208-55.15v-110.3L296.135,413.321z M296.135,412.363
			l-96.077,55.673v111.258l96.077,55.673l96.076-55.673V467.948L296.135,412.363z"/>
		<path class="st1" d="M397.858,579.033V468.21l95.642-55.412l95.642,55.412v110.823L493.5,634.357L397.858,579.033z"/>
		<path class="st1" d="M493.5,413.321l95.208,55.15v110.3l-95.208,55.15l-95.208-55.15v-110.3L493.5,413.321z M493.5,412.363
			l-96.077,55.673v111.258l96.077,55.673l96.077-55.673V467.948L493.5,412.363z"/>
		<path class="st1" d="M595.223,579.033V468.21l95.642-55.412l95.643,55.412v110.823l-95.643,55.324L595.223,579.033z"/>
		<path class="st1" d="M690.865,413.321l95.208,55.15v110.3l-95.208,55.15l-95.208-55.15v-110.3L690.865,413.321z M690.865,412.363
			l-96.076,55.673v111.258l96.076,55.673l96.077-55.673V467.948L690.865,412.363z"/>
		<path class="st1" d="M792.588,579.033V468.21l95.729-55.412l95.643,55.412v110.823l-95.643,55.324L792.588,579.033z"/>
		<path class="st1" d="M888.317,413.321l95.208,55.15v110.3l-95.208,55.15l-95.207-55.15v-110.3L888.317,413.321z M888.317,412.363
			l-96.076,55.673v111.258l96.076,55.673l96.077-55.673V467.948L888.317,412.363z"/>
		<path class="st1" d="M3.04,229.574V118.838l95.642-55.411l95.642,55.411v110.736l-95.642,55.412L3.04,229.574z"/>
		<path class="st1" d="M98.683,63.95l95.208,55.15v110.3l-95.208,55.15L3.475,229.313V119.1L98.683,63.95z M98.683,62.904
			L2.606,118.577v111.259l96.077,55.673l96.076-55.673V118.577L98.683,62.904z"/>
		<path class="st1" d="M200.406,229.574V118.838l95.729-55.411l95.642,55.411v110.736l-95.642,55.412L200.406,229.574z"/>
		<path class="st1" d="M296.135,63.95l95.208,55.15v110.3l-95.208,55.15l-95.208-55.15V119.1L296.135,63.95z M296.135,62.904
			l-96.077,55.673v111.259l96.077,55.673l96.076-55.673V118.577L296.135,62.904z"/>
		<path class="st1" d="M397.858,229.574V118.838L493.5,63.427l95.642,55.411v110.736L493.5,284.986L397.858,229.574z"/>
		<path class="st1" d="M493.5,63.95l95.208,55.15v110.3L493.5,284.55l-95.208-55.15V119.1L493.5,63.95z M493.5,62.904
			l-96.077,55.673v111.259l96.077,55.673l96.077-55.673V118.577L493.5,62.904z"/>
		<path class="st1" d="M595.223,229.574V118.838l95.642-55.411l95.643,55.411v110.736l-95.643,55.412L595.223,229.574z"/>
		<path class="st1" d="M690.865,63.95l95.208,55.15v110.3l-95.208,55.15l-95.208-55.15V119.1L690.865,63.95z M690.865,62.904
			l-96.076,55.673v111.259l96.076,55.673l96.077-55.673V118.577L690.865,62.904z"/>
		<path class="st1" d="M792.588,229.574V118.838l95.729-55.411l95.643,55.411v110.736l-95.643,55.412L792.588,229.574z"/>
		<path class="st1" d="M888.317,63.95l95.208,55.15v110.3l-95.208,55.15L793.11,229.4V119.1L888.317,63.95z M888.317,62.904
			l-96.076,55.673v111.259l96.076,55.673l96.077-55.673V118.577L888.317,62.904z"/>
	</g>
</g>
</svg>
